<svg xmlns="http://www.w3.org/2000/svg" xmlns:xlink="http://www.w3.org/1999/xlink" width="48" height="48" version="1.1" viewBox="0 0 48 48"><title>N-b-and-w</title><desc>Created with Sketch.</desc><g id="N-b-and-w" fill="none" fill-rule="evenodd" stroke="none" stroke-width="1"><g id="Body"><polygon id="Rectangle-1" fill="#000" points="0 0 48 48 0 48"/><polygon id="Rectangle-1-Copy" fill="#FFF" points="48 48 0 0 48 0"/></g><g id="border"><polygon id="Rectangle-2-Copy-2" fill="#FFF" points="42 42 48 48 48 0 0 0 6 6 42 6" transform="translate(24.000000, 24.000000) rotate(-90.000000) translate(-24.000000, -24.000000)"/><polygon id="Rectangle-2-Copy-3" fill="#000" points="42 42 48 48 48 0 0 0 6 6 42 6" transform="translate(24.000000, 24.000000) rotate(-270.000000) translate(-24.000000, -24.000000)"/><polygon id="Rectangle-2-Copy-4" fill="#000" points="47 47 48 48 48 0 0 0 1 1 47 1" transform="translate(24.000000, 24.000000) rotate(-90.000000) translate(-24.000000, -24.000000)"/></g></g></svg>